# xmcd CD database file
#
# Track frame offsets:
#	150
#	15357
#	35482
#	55892
#	71995
#	85902
#	101745
#	120892
#	138550
#	155577
#	181880
#	194285
#
# Disc length: 2711 seconds
#
# Revision: 2
# Processed by: cddbd v1.4PL0 Copyright (c) Steve Scherf et al.
# Submitted via: CDex 1.50Beta7
#
DISCID=9e0a950c
DTITLE=Kenny Neal - Walking On Fire
DYEAR=1991
DGENRE=R&B
TTITLE0=Look But Don't Touch
TTITLE1=The Truth Hurts
TTITLE2=I Put My Trust In You
TTITLE3=Blues Stew
TTITLE4=Moring After
TTITLE5=I.O.U.
TTITLE6=My Only Good Thing
TTITLE7=I Been Missing You, Too
TTITLE8=Caught In The Jaws Of A Vice
TTITLE9=Things Got To Get Better
TTITLE10=Walking On Fire
TTITLE11=Bad Luck Card
EXTD=YEAR: 1991
EXTT0=
EXTT1=
EXTT2=
EXTT3=
EXTT4=
EXTT5=
EXTT6=
EXTT7=
EXTT8=
EXTT9=
EXTT10=
EXTT11=
PLAYORDER=
